<svg width="470" height="470" viewBox="0 0 470 470" fill="none" xmlns="http://www.w3.org/2000/svg">
<g clip-path="url(#clip0_1_2)">
<path d="M234.33 458.12C358.003 458.12 458.26 357.863 458.26 234.19C458.26 110.517 358.003 10.26 234.33 10.26C110.657 10.26 10.4 110.517 10.4 234.19C10.4 357.863 110.657 458.12 234.33 458.12Z" fill="#1AADAD"/>
<path style="mix-blend-mode:multiply" d="M128.04 83.09L134.52 78.5L135.85 82.5L131.99 83.15L135.93 85.92L128.93 87.1C129.18 89.54 129.42 91.99 129.7 94.81C134.49 92.01 134.7 85.05 140.28 84.64C140.4 85.64 140.55 86.92 140.69 88.17L141.62 88.08L139.69 91.23L142.75 92.23L136.51 96.23L141.38 97.1L138.01 99.1L147.83 103.5L140.12 107.26L137.45 105.17L136.65 106.9L132.08 107.66C133.155 108.478 134.416 109.017 135.75 109.23C136.9 109.53 138.5 110.58 139.08 110.12C141.55 108.12 143.51 107.93 145.56 109.72C145.87 109.98 146.75 109.57 147.36 109.5L153.71 108.83V109.83L146.83 114.83L147.69 116.36L143.5 115.02L142.69 117.5L136.77 117.04L136.33 118.45C139.12 118.94 142.33 120.73 144.61 119.64C148.53 117.74 151.88 118.47 155.61 118.31C153.88 119.8 151.1 120.65 150.38 122.23C148.61 126.14 146.21 127.29 142.62 127.15C140.528 127.189 138.441 127.356 136.37 127.65C140.29 130 144.21 132.1 148.2 129.31C149.412 129.726 150.661 130.028 151.93 130.21C154.19 130.21 156.49 130.03 158.65 129.93C155.15 138.56 148.65 139.61 141.96 141.07C143.484 142.008 145.187 142.618 146.96 142.86C150.11 143.23 153.36 139.86 156.68 141.95C158.02 142.81 160.35 142.22 162.23 142.29L162.35 143.56L154.88 149.56C155.49 153.96 150.25 151.11 148.61 154.56L161.2 153.02C160.674 153.702 160.225 154.44 159.86 155.22C159.719 155.934 159.679 156.665 159.74 157.39L156.95 157.54C158.95 159.54 158.95 159.54 167.14 156.66C166.74 158.33 166.8 160.25 165.88 161.43C164.617 162.806 163.048 163.864 161.3 164.52C159.878 164.966 158.407 165.238 156.92 165.33L156.84 166.98L174.09 165.59L162.41 175.28L174.41 175.78L174.53 174.95L171.09 172.51L176.47 171.6L171.52 168.58L179.73 166.28L179.85 165.28L172.64 162.28L177.81 158.14L173.98 155.81L184.77 152.81L174.15 151.24L174.35 149.7L186.11 148.61C185.464 148.043 184.656 147.694 183.8 147.61C182.8 147.41 181.41 147.61 180.95 146.97C180.03 145.72 179.64 144.05 178.83 142.07L183.45 143.13C183.06 140.49 182.76 138.51 182.6 137.44L186.87 132.31L188.75 133.09L186.75 137.32C189.61 134.93 189.5 134.98 190.35 137.46C190.59 138.14 191.57 138.55 192.35 138.89C193.13 139.23 194.35 139.12 194.35 139.27C194.22 140.67 193.84 142.09 193.6 143.5C193.52 143.95 193.45 144.6 193.69 144.82C195.11 146.18 196.63 147.43 198.47 149.04L189.99 150.86L189.92 151.92L202.24 151.49L202.32 152.43L193.52 156.86V157.61L202.81 156.49L203.05 158.11L191.84 163.11L205.27 163.18L205.57 164.76L195.23 170.18L207.53 169.71V170.82L199.52 177.05L207.13 175.78L204.81 179.5L210.24 178.59C210.09 182.86 206.76 181.83 204.83 183.73L214.83 182.97L207.96 188.29C209.84 188.46 211.85 188.55 213.8 188.86C214.581 189.102 215.319 189.463 215.99 189.93C215.32 190.63 214.73 191.68 213.99 191.93C210.1 193.43 206.15 194.73 201.8 196.25L216.8 196.96V197.96L203.26 203.89C205.99 204.34 208.17 205.07 210.43 204.96C212.43 204.86 214.56 203.84 217.09 203.09L212.22 211.68L215.97 212.06C208.24 216.26 200.57 219.06 192.41 217.88C192.46 218.65 192.54 219.81 192.61 220.83L187.45 221.7C187.68 219.7 187.87 217.98 188.17 215.37C180.08 223.23 171.91 223.19 163.66 223.37C163.53 225.69 160.92 226.7 157.32 225.67C155.813 225.42 154.267 225.561 152.83 226.08C151.83 226.36 151.02 227.58 150.02 227.98C145.26 229.91 141.12 229.05 136.88 225.28L138.08 233.16L128.79 234.72C130.67 225.79 130.67 225.79 128.39 224.24C127.82 225.07 127.39 226.24 126.65 226.67C122.17 229.43 118.98 234.67 112.9 234.51C108.21 234.39 103.23 237.92 98.45 235.86C97.69 235.53 96.23 236.38 95.15 236.86C94.07 237.34 93.15 238.21 92.15 238.63C87.45 240.53 83.25 239.76 78.82 236.63C79.39 239.82 79.75 241.8 80.1 243.78L69.91 245.49C70.62 242.88 71.42 240.28 71.99 237.65C72.11 237.1 71.41 236.49 71.08 235.91C70.52 236.31 69.94 236.68 69.41 237.12C67.41 238.77 65.56 240.61 63.47 242.04C61.818 243.191 59.9865 244.059 58.05 244.61C54.9308 245.415 51.7692 246.046 48.58 246.5C47.46 246.66 45.77 246.87 45.32 246.25C43.84 244.25 41.32 244.91 39.46 243.97L39.91 242.32L30.33 241.14C33.33 232.37 41.48 236.33 46.83 232.4L34.23 232.59L35.12 230.25L30.25 231.07L30.11 229.5C34.5 228.14 38.91 226.77 43.3 225.38C43.45 225.02 43.4 225.38 43.3 225.38L33.52 221.84L40.52 218.84C37.72 216.95 31.72 220.34 33.13 214.29L29.65 213.79C30.91 212.9 32.36 213.24 33.05 212.63C36.28 209.76 39.69 209.95 43.29 209.54C46.03 209.22 48.82 207.43 51.85 206.2C46.72 203.6 40.19 205.99 37.21 200.54C44.05 199.54 51 199.39 58.21 194.83C56.8705 194.801 55.5343 194.684 54.21 194.48C48.5 193.1 41.04 196.6 36.74 190.08L55.25 185.5L52.25 184.17L60.86 180.01L60.67 178.92C53.76 181.64 46.82 184.63 40.91 179.25L55.74 172.39L54.79 169.64C51.45 172.16 48.07 171.53 44.06 167.57L48.71 166.79L53.45 165.99L45.23 161.81L45.68 160.87L58.58 157.5L58.76 155.94L44.58 150.56L44.64 149.8L52.33 148.51C50.52 144.05 55.12 146.51 56.4 145.09L48.52 141.05C52.99 139.73 56.37 137.76 59.13 138.13C64.13 138.79 66.59 135.42 69.65 132.57C65.85 134.91 65.24 134.25 59.1 135.34C54.62 136.12 52.45 132.47 47.53 133.67L52.39 130.37C55.96 130.27 67.84 130.54 69.18 128.37L57.52 126.87L59.76 125.25L56.58 119.39L63.88 120.39L64.13 119.34L62.65 117.21L65.26 116.94L61.8 110.84L66.41 109.84L68.13 113.3L69.21 112.6L65.52 105.82L68.52 107.06L69.24 101.97L69.89 101.89L70.89 105.66L74.05 103.66L70.21 111.43L77 107.03L77.61 110.85L74.06 111.29L77.84 113.78L71.11 114.91L71.59 122.06C75.44 118.31 78.77 115.06 82.11 111.82L82.95 112.41C82.63 113.71 80.38 116.02 84.12 115.01L82.17 118.3L84.77 119.3L78.91 122.86L82.35 123.5L80.68 125.72L89.35 128.84C85.98 130.56 82.93 133.7 79.58 130.78L78.68 132.65L73.93 132.8C76.26 134.12 77.93 135.98 78.99 135.52C82.82 133.79 86.39 134 90.09 134.11C92.066 134.074 94.0387 133.933 96 133.69V134.84C92.18 135.27 83.72 141.03 82.85 141.12C81.45 141.26 80.04 141.33 78.39 141.45C82.92 144.73 86.27 144.58 89.83 141.84L97.83 141.62C94.83 144.41 92.51 147.69 89.52 149.12C86.25 150.69 82.4 150.55 79 151.12C82.94 155.2 89 151.05 93.84 152.62C95.93 153.3 98.78 152.25 101.35 151.97C97.27 159.97 90.72 160.9 83.3 161.97C84.8507 163.044 86.6655 163.673 88.548 163.789C90.4305 163.905 92.3089 163.505 93.98 162.63C94.7139 162.217 95.4967 161.898 96.31 161.68C97.9 164.68 100.23 161.68 102.39 161.31L99.28 159.67C101.37 158.37 103.28 156.67 105.38 155.96C109.59 154.52 113.93 153.62 114.81 147.38C109.42 153.52 106.47 148.75 102.89 146.13L111.89 144.62L104.52 140.04C104.18 139.82 112.71 136.19 117.05 135.04L117.34 133.57L102.83 126.74L110.55 124.57C109.13 120.72 112.2 121.44 115.7 121.57C112.32 119.57 123.85 110.73 126.7 108.16C125.04 108.645 123.416 109.247 121.84 109.96M125.84 84.96L127.04 84.24ZM167.29 199.24C166.36 199.12 165.06 198.52 164.57 198.94C161.57 201.51 158.11 200.17 154.16 202.39L164.79 205.39L165.21 204.57C164.52 203.57 163.84 202.48 163.21 201.57L167.1 199.09L174.81 198.15L174.9 196.68C172.955 196.275 170.976 196.057 168.99 196.03C167.26 196.17 166.26 197.41 167.31 199.23L167.29 199.24ZM152.12 187.4L151.78 189.12C156.18 189.54 160.55 190.18 165.01 190.2C166.01 190.2 167.33 188.07 168.18 187.2L180.69 181.28L180.36 180.14C176.9 181.2 172.97 181.47 170.09 183.5C165.24 186.91 160.53 186.95 155.61 187.15C154.52 187.22 153.31 187.32 152.14 187.39L152.12 187.4ZM110.31 165.24L119.21 160.59C115.14 160.92 111.21 162.59 107.47 162.75C102.63 162.95 101.47 169.21 96.24 168.93C99.08 170.39 112.82 167.93 113.24 166.15L110.31 165.24ZM107.16 182.02C110.41 180.52 113.32 179.18 116.24 177.85L116.02 177.11L109.57 176.62L107.16 182.02Z" fill="url(#paint0_linear_1_2)"/>
<path d="M152.14 187.39C153.31 187.32 154.47 187.22 155.63 187.18C160.55 186.98 165.26 186.94 170.11 183.53C172.99 181.53 176.92 181.23 180.38 180.17L180.71 181.31L168.2 187.23C167.35 188.06 166.03 190.23 165.03 190.23C160.57 190.23 156.2 189.57 151.8 189.15L152.14 187.39Z" fill="url(#paint1_linear_1_2)"/>
<path d="M167.17 199.11L163.28 201.59C163.86 202.47 164.54 203.52 165.28 204.59L164.86 205.41L154.23 202.41C158.23 200.19 161.67 201.53 164.64 198.96C165.13 198.54 166.43 199.14 167.36 199.26L167.17 199.11Z" fill="url(#paint2_linear_1_2)"/>
<path d="M167.31 199.23C166.31 197.41 167.31 196.17 169.06 196.05C171.046 196.077 173.025 196.295 174.97 196.7L174.88 198.17L167.17 199.11L167.31 199.23Z" fill="url(#paint3_linear_1_2)"/>
<path d="M47.24 348.06C48.1 349.48 48.98 350.88 49.87 352.28C48.96 350.9 48.1 349.5 47.24 348.06Z" fill="#096289"/>
<path d="M207.52 212.02H207.24C246.4 199.57 287.52 195.5 330.39 199.59C333.29 199.87 336.19 200.22 339.08 200.59C337.34 200.35 335.61 200.12 333.88 199.91C332.72 199.78 331.56 199.65 330.4 199.54C267.88 193.54 209.21 204.93 154.81 234.37C134.02 245.595 115.043 259.892 98.52 276.78C76.74 299.05 59.99 324.2 50.07 352.65C52.53 356.47 55.0967 360.207 57.77 363.86C93.39 298.75 207.19 254.28 340.14 259.5C355.14 260.09 369.9 261.31 384.25 263.08C365.98 246.4 344.92 234.65 321.88 226.52C284.65 213.42 246.52 208.09 207.52 212.02Z" fill="#096289"/>
<g style="mix-blend-mode:multiply">
<path d="M443.31 250.01C441.4 252.19 439.5 252.94 437.26 252.11C436.76 251.92 436.26 251.46 435.79 251.24C435.32 251.02 434.57 250.61 434.23 250.86C432.12 252.42 429.69 250.62 427.54 251.01C424.74 251.52 423.07 248.57 420.9 247.19C420.54 246.96 420.3 246.3 420 245.84C419 246.94 419 246.94 420.24 252.22L415.9 251.9L416.14 247.04C414.34 249.62 412.47 250.42 410.21 249.57C409.73 249.39 409.3 248.71 408.84 248.57C408.161 248.347 407.425 248.368 406.76 248.63C405.14 249.49 403.9 249.06 403.76 247.63C399.96 248.06 396.2 248.63 392.17 244.43L392.76 248.21L390.35 248.04V246.23C386.65 247.48 383.01 246.33 379.29 244.3L380.99 243.82L378.41 238.95C379.421 239.316 380.478 239.545 381.55 239.63C382.677 239.387 383.768 239.004 384.8 238.49L378.34 235.82V235.22L385.21 233.78C383.15 233.15 381.28 232.63 379.43 231.98C379.07 231.85 378.76 231.26 378.43 230.88C378.75 230.6 379.03 230.21 379.43 230.08C380.31 229.76 381.23 229.57 382.09 229.34L378.72 226.59L383.35 226.37C382.35 225.37 380.9 226.2 380.66 223.62L383.19 223.8L382 221.7L385.55 221.96L381.55 218.73V218.05L387.23 217.5L382.23 214.92L382.31 213.92L388.48 212.92L383.13 210.65V209.65L387.45 209.7V209.25L383.26 207.14V206.56L388.95 205.99L388.87 205.35L384.87 204.82C385.65 203.73 386.3 202.82 386.87 201.95C386.945 201.685 386.945 201.405 386.87 201.14C386.7 200.3 386.47 199.47 386.36 198.62C386.36 198.53 386.97 198.47 387.24 198.26C387.631 198.036 387.932 197.682 388.09 197.26C388.38 195.7 388.33 195.68 389.73 196.94L388.66 194.51L389.49 193.91L391.66 196.73L391.49 200.23L393.58 199.23C393.405 200.286 393.144 201.326 392.8 202.34C392.61 202.74 391.95 202.73 391.51 202.92C391.096 203.061 390.743 203.34 390.51 203.71L395.96 203.57L396.12 204.5L391.29 206.17L396.32 207.5L394.65 209.18L397.19 211.33L393.99 213.63L394.09 214.21L397.96 215.05L395.86 217.25L398.37 217.43L396.88 219.14L396.97 219.64L402.52 218.5L396.76 213.43L404.76 213.1L404.66 212.1C403.97 212.145 403.278 212.077 402.61 211.9C401.737 211.596 400.965 211.056 400.38 210.34C399.944 209.445 399.654 208.486 399.52 207.5C403.4 208.72 403.4 208.72 404.24 207.35L402.95 207.45C402.955 207.009 402.908 206.57 402.81 206.14C402.62 205.704 402.385 205.288 402.11 204.9L407.96 204.98C407.07 202.98 404.77 205.09 404.88 202.39L401.2 199.24V198.5C402.06 198.33 403.15 198.5 403.74 197.92C405.18 196.43 406.81 198.25 408.24 197.81C409.077 197.519 409.833 197.036 410.45 196.4C407.32 195.96 404.28 195.76 402.33 190.77C403.33 190.69 404.39 190.65 405.43 190.49C406.018 190.286 406.581 190.018 407.11 189.69C409.05 191.11 410.77 189.58 412.48 187.89C411.515 187.849 410.548 187.89 409.59 188.01C407.94 188.34 406.79 187.8 405.82 185.55C405.43 184.64 404.12 184.32 403.26 183.55C404.97 183.39 406.49 182.73 408.36 183.61C409.44 184.12 410.86 182.82 412.12 182.33L411.86 181.5L409.16 182.19L408.69 180.74L406.82 181.84L407.15 180.84L403.79 178.29V177.68H406.73C407.01 177.68 407.44 177.87 407.57 177.68C408.44 176.46 409.35 176.46 410.57 177.48C410.86 177.72 411.57 176.98 412.07 176.72C412.71 176.477 413.271 176.062 413.69 175.52L411.56 175.37L411.13 174.37L409.98 175.81L406.29 174.06L410.62 170.73L409 169.73L411.2 168.87L408.2 166.87L409.57 166.04L408.57 164.26H409V162.1C411.6 161.97 412 166.17 414.28 167.54V162.82L411 162.58L412.7 160.64L410.9 160.5L411.35 157.99L414.49 160.33L412.28 155.04L413.86 156.43L414.16 153.79H414.52L414.98 157.35L416.47 155.97L415.03 160.97L415.61 161.32L416.14 158.98L418.27 159.13L417.1 163.5L417.81 163.79C417.6 165.79 417.92 166.34 419.01 165.67C419.589 165.201 420.277 164.884 421.01 164.75L419.76 168.95L420.9 169.87L415.65 171.87C416.02 173.09 417.23 172.87 419.45 172.49C420.71 172.25 422.01 172.43 422.82 171.49L425.31 173.32C425.164 173.503 424.996 173.668 424.81 173.81C423.93 174.29 423.05 174.72 422.17 175.19C421.6 175.5 421.05 175.84 420.4 176.19C420.31 175.88 420.4 176.19 420.61 176.87C419.77 176.59 419.08 176.37 418.4 176.11C417.654 175.79 416.881 175.535 416.09 175.35C417.51 176.72 418.57 178.81 420.8 177.63C421.8 177.09 423.53 178.37 425.54 179.04L421.69 182.73C423.3 182.43 424.69 181.79 424.18 184.21L427.81 185.01L421.42 190.13L421.61 191L427.73 192.16L428.02 192.7L424.4 196.4L428.59 196.71C427.05 198.53 425.88 201.62 423.16 198.27C423.81 201.99 425.84 202.27 427.84 202.83C428.898 203.315 429.889 203.934 430.79 204.67L429.42 205.87C430.42 205.96 431.62 207.59 432.24 205.68C432.24 205.59 432.96 205.93 433.35 206.1C435.04 206.83 436.55 206.68 438.23 204.97C434.78 204.83 431.73 204.73 429.53 200.15C430.72 200.15 432.08 200.59 433.01 200.03C435.17 198.75 438.13 200.85 439.78 198.12C438.19 198 436.42 198.35 434.86 197.62C433.3 196.89 432.22 195.13 430.74 193.62L434.41 193.21C436.15 194.63 437.7 194.5 439.65 192.21C438.89 192.21 438.24 192.3 437.59 192.31C437.352 192.328 437.113 192.291 436.891 192.203C436.669 192.115 436.471 191.977 436.31 191.8C434.1 193.28 433.07 189.4 431.31 189.4L431.26 188.7C432.172 188.719 433.085 188.672 433.99 188.56C435.69 188.24 437.32 187.87 439.15 188.66C439.63 188.87 440.35 187.66 441.37 186.66L439.18 186.89L438.69 185.82C437.27 187.82 435.74 186.12 434.12 185.31L437.98 182.83L437.13 181.6L438.68 180.97L435.84 179.21L437 178.45L436 176.58C437.76 176.94 436.63 175.7 436.43 174.93L436.79 174.52L442.04 180.01L441.97 175.64L438.84 175.42L440.47 173.65H438.82L438.95 171.29L442.25 173.49L440.17 169.05L441.71 170.05L442.01 167.7H442.31L442.85 170.7L444.16 169.75L442.76 174.08L443.28 174.43L443.93 172.22L446.09 172.51L444.73 176.5H445.95L445.35 177.89L445.51 178.51L448.82 177.44L447.59 181.21L448.69 182.04L443.38 183.77C444.08 184.96 445.03 185.01 446.99 184.33C448.365 184.011 449.769 183.836 451.18 183.81L453.52 185.5C451.35 185.4 449.45 196.02 443.3 186.34C444.82 187.85 446.08 189.73 448.36 188.99C449.61 188.58 451.25 189.54 453.36 190.04L449.91 193.04C450.56 193.81 452.57 192.04 451.91 194.84L455.5 195.1L455.56 195.55C453.46 196.96 453.44 201.46 455.46 201.83L455.71 202.38L452.1 205.46L454.31 205.62L456.47 205.78C454.79 208.45 453.26 209.06 451.63 207.78L451.3 209.51L458.39 212.67C455.89 216.33 452.62 216.99 452.04 217.43L460.77 218.93C459.05 223.17 455.48 221.56 452.91 222.78C452.43 223 457.74 225.16 460.91 225.3C459.76 228.81 456.66 227.8 454.41 229.72C455.85 230.26 457.2 231.16 458.48 231.16C460.15 231.16 461.71 230.83 463.31 232.34C463.65 232.67 464.31 232.34 464.92 232.82L463.34 233.35C464.23 236.93 461.34 235.28 460.12 236.61L463.48 237.98L459.11 240.77L465.35 242.37V243.37L463.08 243.2L463.58 244.56L457.78 245.3C460.4 247.3 463.96 244.37 465.72 249.47L461.36 250.84L461.63 251.84C460.84 252.53 459.63 252.29 459.03 253.61C458.85 254.02 458.03 254.01 457.54 253.98C456.068 253.949 454.601 253.809 453.15 253.56C452.213 253.348 451.331 252.943 450.56 252.37C449.536 251.565 448.558 250.704 447.63 249.79C447.37 249.56 447.08 249.38 446.81 249.17C446.68 249.55 446.39 249.97 446.46 250.29C446.83 251.84 447.3 253.36 447.73 254.9L442.98 254.55L443.31 250.01ZM424.64 209.58C424.89 210.58 431.3 211.19 432.55 210.11C430.17 210.63 429.37 206.92 427.14 207.11C425.41 207.27 423.54 206.52 421.66 206.6L425.94 208.81L424.64 209.58ZM426.73 215.68L423.78 216.41L423.71 216.87L428.05 218.78L426.73 215.68Z" fill="url(#paint4_linear_1_2)"/>
</g>
<path d="M234.74 469.5C105.3 469.5 0 364.17 0 234.74C0 105.31 105.3 0 234.74 0C364.18 0 469.52 105.3 469.52 234.74C469.52 364.18 364.17 469.5 234.74 469.5ZM234.74 15.61C113.89 15.61 15.58 113.92 15.58 234.77C15.58 355.62 113.89 453.9 234.74 453.9C355.59 453.9 453.9 355.58 453.9 234.74C453.9 113.9 355.58 15.58 234.74 15.58V15.61Z" fill="white"/>
<path d="M340.14 259.5C207.14 254.25 93.38 298.73 57.78 363.84C83.8949 399.681 120.275 426.75 162.109 441.465C203.942 456.18 249.258 457.849 292.06 446.25C308.541 441.576 324.478 435.159 339.6 427.11C368.014 411.576 392.646 389.957 411.736 363.799C430.826 337.64 443.902 307.588 450.03 275.79C414.111 266.331 377.258 260.867 340.14 259.5Z" fill="url(#paint5_linear_1_2)"/>
<path d="M442.98 303.03C443.15 302.51 443.3 301.97 443.47 301.44C443.33 301.98 443.16 302.5 442.98 303.03Z" fill="#351E14"/>
<path d="M321.88 226.55C344.96 234.69 366.03 246.46 384.32 263.18C406.481 265.888 428.43 270.118 450.01 275.84C451.49 268.123 452.548 260.332 453.18 252.5C425.1 228.84 390 211.08 350.35 202.34C343.7 201.22 337.06 200.26 330.35 199.62C287.44 195.54 246.35 199.62 207.22 212.07H207.5C246.52 208.09 284.65 213.42 321.88 226.55Z" fill="#351E14"/>
<path d="M453.52 247.9C409.52 213.16 350 186.83 282.18 175.67C277.89 174.97 273.13 174.39 268.1 173.93C216.478 166.442 163.831 170.729 114.1 186.47C78.9827 197.358 45.7528 213.591 15.58 234.6V234.74C15.5298 276.542 27.5061 317.477 50.08 352.66C59.99 324.21 76.75 299.06 98.53 276.78C115.051 259.897 134.024 245.602 154.81 234.38C209.21 204.94 267.88 193.6 330.4 199.55C337.07 200.18 343.71 201.15 350.4 202.26C390.04 211.01 425.15 228.74 453.23 252.39C453.3 250.9 453.4 249.4 453.52 247.9Z" fill="url(#paint6_linear_1_2)"/>
<path d="M231.18 198.97C231.696 199.916 231.909 200.999 231.79 202.07C231.79 203.17 231.79 204.26 231.79 205.36C234.16 204.83 236.53 204.36 238.91 203.85C238.55 202.53 238.23 201.2 237.97 199.85C237.83 199.14 238.25 198.63 238.37 198.01C238.812 197.369 239.42 196.86 240.13 196.54C240.513 196.368 240.93 196.285 241.349 196.299C241.769 196.313 242.179 196.423 242.55 196.62C243.004 196.75 243.486 196.747 243.938 196.61C244.39 196.473 244.794 196.21 245.1 195.85C245.202 195.706 245.264 195.538 245.28 195.362C245.295 195.186 245.264 195.01 245.19 194.85C244.808 193.73 244.034 192.785 243.01 192.192C241.986 191.598 240.782 191.395 239.62 191.62C238.73 191.7 233.16 188.05 232.51 187.62C231.86 187.19 231.42 187.62 230.94 187.95C230.69 188.41 230.35 188.86 230.56 189.41C230.571 189.463 230.591 189.514 230.62 189.56C231.05 190.95 230.2 192.05 229.56 193.04C228.46 194.76 229.14 196.04 230.06 197.48C230.363 198.026 230.74 198.527 231.18 198.97Z" fill="url(#paint7_linear_1_2)"/>
<path d="M212.52 199.5C212.771 199.924 212.903 200.407 212.903 200.9C212.903 201.393 212.771 201.876 212.52 202.3C212.14 203.02 211.8 203.78 212.52 204.54C213 205.81 214.09 206.6 214.95 207.54C215.056 207.728 215.199 207.893 215.371 208.024C215.543 208.154 215.74 208.248 215.95 208.3C216.385 208.462 216.783 208.71 217.12 209.03C219.033 208.49 220.95 207.973 222.87 207.48C222.9 207.288 222.9 207.092 222.87 206.9C222.251 204.816 221.865 202.669 221.72 200.5C221.549 199.571 221.622 198.613 221.93 197.72C222.357 196.466 222.543 195.143 222.48 193.82C222.436 193.362 222.49 192.901 222.636 192.465C222.782 192.029 223.019 191.629 223.33 191.29C223.508 191.13 223.643 190.928 223.723 190.703C223.804 190.478 223.826 190.236 223.79 190C223.71 189.55 223.48 189.2 222.97 189.29C221.222 189.494 219.547 190.107 218.08 191.08C216.636 191.593 215.413 192.589 214.62 193.9C214.057 194.493 213.705 195.256 213.62 196.07C213.608 196.342 213.51 196.603 213.342 196.816C213.173 197.03 212.942 197.185 212.68 197.26C211.93 197.45 211.84 197.95 212.07 198.58C212.189 198.901 212.34 199.209 212.52 199.5Z" fill="url(#paint8_linear_1_2)"/>
<path d="M265.52 120.5C265.526 119.385 265.309 118.28 264.88 117.25C264.531 116.569 264.324 115.824 264.27 115.06C264.27 114.548 264.128 114.046 263.86 113.61C263.48 111.2 262.34 108.96 262.13 106.5C262.126 106.356 262.093 106.215 262.033 106.084C261.973 105.953 261.887 105.836 261.78 105.74C261.53 104.59 261.28 103.44 261.02 102.29C260.48 100.86 260.22 99.35 259.77 97.91C259.24 96.22 258.77 94.5 258.23 92.82C257.34 90.04 256.29 87.32 255.45 84.52C255.374 83.5797 255.126 82.6613 254.72 81.81C254.37 80.17 253.41 78.74 253.1 77.09C253.071 76.9908 253.012 76.9033 252.93 76.84C252.877 76.7761 252.817 76.719 252.75 76.67C252.453 76.1535 252.196 75.6153 251.98 75.06C251.35 73.06 245.71 70.2 244.56 69.77C242.78 69.06 241.21 67.95 239.49 67.13C238.76 66.77 238.79 66.36 239.29 65.9C240.19 65.05 241.14 64.25 242.07 63.43C242.713 62.9153 243.241 62.2714 243.62 61.54C243.88 61.35 243.84 61.02 244 60.78C244.27 59.39 244.82 58.02 244.36 56.56C244.36 56.81 244.22 56.82 244.36 56.56C244.95 55.98 245.36 55.38 244.92 54.5C244.75 54.18 244.92 53.83 245.03 53.5L244.97 53.35C245.163 53.1786 245.282 52.9393 245.302 52.6821C245.323 52.4249 245.243 52.1698 245.08 51.97H245.22C244.68 50.88 243.8 49.97 243.62 48.7C243.62 48.56 243.35 48.46 243.21 48.34L242.83 47.34C242.8 46.8338 242.63 46.3458 242.34 45.93C241.67 44.62 241.81 43.8 243.14 43.33C244.315 42.7324 245.562 42.2888 246.85 42.01C247.31 42.01 247.79 41.88 247.77 41.28C247.75 40.68 247.28 40.45 246.77 40.42C245.671 40.4263 244.596 40.7342 243.66 41.31C243.587 41.3348 243.52 41.372 243.46 41.42C241.88 41.77 227.51 44.84 227.2 44.85C226.01 44.71 225.02 45.45 223.88 45.57C223.24 45.64 222.98 46.03 222.88 46.65C222.819 47.731 222.582 48.7948 222.18 49.8C222.031 50.026 221.956 50.2925 221.965 50.5629C221.974 50.8333 222.067 51.0943 222.23 51.31C222.54 51.68 222.97 51.57 223.35 51.36C223.589 51.2224 223.787 51.0218 223.92 50.78L224.47 50.35C225.09 50.13 225.78 49.59 226.26 50.53C226.74 51.47 227.52 52.47 226.47 53.6C226.26 53.82 226.28 54.26 226.19 54.6L225.63 55.6C225.362 55.8606 225.206 56.2159 225.197 56.5898C225.188 56.9636 225.325 57.3263 225.58 57.6C225.765 57.8145 225.901 58.0674 225.977 58.3406C226.053 58.6138 226.068 58.9005 226.02 59.18C225.49 59.55 224.94 60.05 225.4 60.66C225.86 61.27 226.21 60.55 226.56 60.28C226.91 60.01 227.12 60.16 227.22 60.56C227.32 60.96 227.36 61.18 227.46 61.48C227.78 62.48 228.17 62.64 229.17 62.36C229.9 62.15 230.32 62.47 230.17 63.23C230.037 63.7503 229.87 64.2613 229.67 64.76C229.48 65.4377 229.08 66.0381 228.529 66.4761C227.978 66.9141 227.303 67.1674 226.6 67.2C225.355 67.2337 224.15 67.6414 223.14 68.37C219.986 70.4825 217.523 73.477 216.06 76.98C215.585 77.6621 215.245 78.4294 215.06 79.24C214.987 79.7391 214.883 80.2333 214.75 80.72C213.871 83.4021 213.229 86.156 212.83 88.95C212.66 90.08 212.11 91.14 212.25 92.31C212.298 94.2173 211.905 96.11 211.1 97.84C210.863 99.1955 210.529 100.532 210.1 101.84C210.065 102.119 210.065 102.401 210.1 102.68C210.114 102.732 210.114 102.788 210.1 102.84C209.835 103.666 209.654 104.517 209.56 105.38L209.5 106.09C208.936 107.536 208.665 109.079 208.7 110.63C208.241 112.137 208.009 113.704 208.01 115.28C207.814 116.726 207.516 118.156 207.12 119.56C206.7 122.1 206.38 124.63 207.6 127.11C208.25 128.43 208.84 129.85 208.05 131.38C208.003 131.628 208.003 131.882 208.05 132.13C207.8 133.81 206.96 135.35 206.9 137.07C207.06 137.37 206.9 137.7 206.98 138.01C206.977 138.831 207.162 139.642 207.52 140.38C207.73 140.7 207.92 141.04 208.39 141.02C208.86 141 209.01 140.61 209.14 140.27C209.273 139.678 209.632 139.161 210.14 138.83L210.31 138.61L212.26 137.31C213.757 136.623 214.967 135.435 215.68 133.95C216.27 132.67 216.4 131.27 217.04 130.04C217.38 129.86 217.31 129.14 217.75 129.27C218.19 129.4 218.1 130.02 218.09 130.44C218.09 131.2 218.09 131.97 217.98 132.73C217.82 134.94 218.34 137.16 217.81 139.37C217.64 140.11 217.53 140.86 217.39 141.61C217.358 141.649 217.34 141.699 217.34 141.75C216.945 142.979 216.644 144.236 216.44 145.51C216.42 145.561 216.42 145.619 216.44 145.67C215.83 147.76 214.59 152.76 214.52 153.17C214.02 156.17 213.96 159.17 213.06 162.03C213.008 162.28 212.981 162.535 212.98 162.79C212.92 163.63 213.34 164.01 214.17 164.04C214.996 164.053 215.821 163.976 216.63 163.81C219.1 163.34 220.32 164.37 220.28 166.81V166.9C220.393 167.567 220.25 168.252 219.879 168.818C219.508 169.383 218.937 169.788 218.28 169.95C218.077 169.982 217.883 170.056 217.711 170.168C217.538 170.28 217.392 170.427 217.28 170.6C216.287 171.324 215.445 172.234 214.8 173.28C214.1 173.94 214.37 174.68 214.68 175.38C215.08 176.3 215.28 180.76 215.34 181.31C215.363 182.074 215.637 182.808 216.12 183.4C216.772 184.688 217.854 185.708 219.18 186.28C220.49 187.287 222.017 187.972 223.64 188.28C224.12 188.39 224.35 188.08 224.46 187.67C224.51 187.449 224.505 187.219 224.444 187.001C224.383 186.782 224.268 186.583 224.11 186.42C223.842 186.083 223.648 185.693 223.541 185.276C223.434 184.859 223.417 184.424 223.49 184C223.635 182.761 223.547 181.506 223.23 180.3C223.005 179.441 223.005 178.539 223.23 177.68C223.49 175.632 223.976 173.62 224.68 171.68C224.733 171.434 224.757 171.182 224.75 170.93L226.52 167.7C226.729 167.417 227.027 167.212 227.366 167.119C227.706 167.027 228.066 167.052 228.39 167.19C228.8 167.333 229.243 167.35 229.662 167.237C230.081 167.125 230.457 166.889 230.74 166.56C231.214 166.001 231.758 165.507 232.36 165.09C232.67 164.91 233.01 164.74 233.36 164.98C233.71 165.22 233.58 165.54 233.56 165.86C233.24 169.53 232.89 173.2 232.65 176.86C232.689 177.871 232.417 178.869 231.87 179.72C231.433 180.116 231.052 180.57 230.74 181.07C229.74 182.31 229.06 183.51 229.98 185.2C230.393 185.834 230.694 186.534 230.87 187.27V187.68C230.874 187.971 230.82 188.26 230.71 188.53C230.682 188.569 230.662 188.613 230.65 188.66C230.41 189.17 230.7 189.61 230.91 190.06C231.34 190.36 231.72 190.8 232.35 190.47C232.397 190.446 232.441 190.416 232.48 190.38H232.58L240.74 187.28C241.6 187.253 242.435 186.98 243.144 186.492C243.853 186.005 244.407 185.323 244.74 184.53C244.828 184.378 244.874 184.206 244.874 184.03C244.874 183.854 244.828 183.682 244.74 183.53C244.474 183.175 244.113 182.903 243.699 182.746C243.285 182.588 242.834 182.551 242.4 182.64C242.04 182.802 241.647 182.881 241.252 182.868C240.857 182.856 240.47 182.754 240.12 182.57C239.48 182.216 238.945 181.698 238.57 181.07C238.5 180.48 238.13 179.98 238.31 179.31C238.907 177.095 239.646 174.921 240.52 172.8C241.03 171.58 241.38 170.29 241.8 169.03C242.04 167.32 242.93 165.8 243.25 164.11C243.317 163.84 243.482 163.605 243.714 163.452C243.945 163.298 244.226 163.237 244.5 163.28C245.642 163.234 246.785 163.358 247.89 163.65C249.246 164.135 250.703 164.267 252.124 164.032C253.545 163.798 254.882 163.205 256.01 162.31C256.343 162.12 256.615 161.837 256.792 161.497C256.97 161.157 257.045 160.772 257.01 160.39C256.872 158.557 256.848 156.716 256.94 154.88C256.81 151.32 256.94 147.75 256.94 144.18C256.94 140.87 256.94 137.56 256.86 134.25C256.86 133.04 256.97 132.13 258.04 131.5C258.728 131.238 259.339 130.806 259.816 130.245C260.294 129.684 260.622 129.011 260.77 128.29C261.201 127.486 261.845 126.815 262.63 126.35C263.95 125.98 264.3 125.58 264.21 124.27C264.097 123.731 264.124 123.173 264.289 122.647C264.454 122.122 264.75 121.648 265.15 121.27C265.273 121.185 265.372 121.069 265.437 120.934C265.502 120.799 265.531 120.649 265.52 120.5Z" fill="#351E14"/>
<g style="mix-blend-mode:multiply">
<path d="M168.52 223.5C168.508 223.283 168.567 223.068 168.688 222.888C168.809 222.708 168.985 222.571 169.19 222.5C169.39 222.03 169.96 221.89 170.08 221.35C170.14 221.25 170.27 221.15 170.16 221.03C170.05 220.91 169.96 221.03 169.87 221.1L170.58 219.77C170.954 219.438 171.198 218.985 171.27 218.49C172.27 216.14 175.02 214.84 176.95 215.81C177.535 216.131 178.193 216.296 178.86 216.29C180.75 216.2 182.08 213.88 181.48 212.01C180.71 209.6 178.75 208.82 176.95 207.76C175.15 206.7 173.31 206.66 171.52 206.04C169.674 205.4 167.773 204.934 165.84 204.65C164.612 204.508 163.369 204.723 162.26 205.27C162.025 205.37 161.825 205.538 161.684 205.751C161.544 205.964 161.469 206.214 161.47 206.47C161.437 207.447 161.195 208.405 160.76 209.28C160.467 210.045 160.341 210.863 160.39 211.68C160.429 212.359 160.215 213.029 159.79 213.56C158.71 215.18 158.25 216.74 159.27 218.41C159.46 218.806 159.558 219.24 159.558 219.68C159.558 220.12 159.46 220.554 159.27 220.95C158.34 223.34 157.76 225.8 157.04 228.24C157.12 228.64 156.78 228.93 156.71 229.29C156.37 231.243 155.95 233.177 155.45 235.09C159.53 232.903 163.63 230.82 167.75 228.84C167.81 227.1 168.36 225.33 168.52 223.5Z" fill="url(#paint9_linear_1_2)"/>
<path d="M120.16 257.1C120.262 256.927 120.317 256.731 120.32 256.53C120.03 254.27 120.63 251.94 120.5 249.67C120.35 247.15 120.31 244.6 120.13 242.08C119.945 240.233 119.61 238.403 119.13 236.61C118.75 235.07 118.01 233.61 118.27 231.85C118.46 230.04 118.5 228.217 118.39 226.4C118.352 225.248 118.599 224.104 119.11 223.07C119.67 221.93 120.32 220.82 119.94 219.51C120.531 220.04 120.986 220.705 121.265 221.448C121.543 222.192 121.638 222.992 121.54 223.78C121.21 226.96 121.34 230.11 121.16 233.28C121.017 236.732 121.275 240.188 121.93 243.58C122.445 246.522 123.174 249.423 124.11 252.26C124.36 253.02 124.62 253.77 124.88 254.52C128.44 251.85 132.1 249.3 135.82 246.83C135.82 246.67 135.82 246.52 135.77 246.36C134.991 243.324 134.367 240.25 133.9 237.15C133.57 234.73 133.15 232.32 132.77 229.91C132.65 228.881 132.394 227.872 132.01 226.91C131.756 226.178 131.672 225.398 131.764 224.629C131.855 223.86 132.121 223.122 132.54 222.47C132.993 221.776 133.257 220.976 133.308 220.148C133.359 219.321 133.194 218.495 132.83 217.75C132.471 216.943 132.17 216.111 131.93 215.26C131.763 214.872 131.711 214.443 131.782 214.026C131.853 213.609 132.043 213.221 132.33 212.91C132.854 212.011 133.629 211.285 134.56 210.82C135.77 210.31 135.97 209.15 135.29 207.7C134.71 207.285 134.001 207.09 133.29 207.15C130.606 207.165 127.929 207.419 125.29 207.91C124.669 208.138 124.02 208.276 123.36 208.32H123.1C122.654 208.562 122.157 208.692 121.65 208.7C120.82 208.88 120.65 209.35 121.07 210.04C121.2 210.28 121.38 210.54 121.07 210.84C120.76 211.14 120.53 210.84 120.39 210.69C119.865 210.332 119.269 210.091 118.643 209.984C118.016 209.877 117.374 209.906 116.76 210.07C114.47 210.39 112.17 210.55 109.88 210.77C108.937 210.859 108.002 211.013 107.08 211.23C106.277 213.237 106.224 215.467 106.93 217.51C106.966 217.619 106.978 217.735 106.964 217.849C106.95 217.963 106.911 218.073 106.85 218.17C106.739 218.353 106.685 218.565 106.696 218.779C106.706 218.993 106.781 219.199 106.91 219.37C107.124 219.738 107.261 220.146 107.312 220.569C107.364 220.992 107.329 221.421 107.21 221.83C107.231 221.94 107.227 222.054 107.2 222.163C107.172 222.272 107.121 222.373 107.05 222.46L106.99 222.86V224.69C106.99 225.02 106.99 225.35 107.04 225.69C107.215 226.057 107.275 226.469 107.21 226.87C107.68 229.2 108.16 231.51 108.61 233.87C108.799 234.71 108.893 235.569 108.89 236.43C108.841 238.745 109.015 241.059 109.41 243.34C109.602 244.439 109.404 245.571 108.85 246.54C107.665 248.871 106.72 251.317 106.03 253.84C105.64 255.04 105.26 256.24 104.95 257.45C104.77 258.15 104.33 258.03 103.95 258.11C103.57 258.19 103.14 258.11 103.19 258.75C103.42 261.36 102.62 263.98 102.47 266.61C102.33 269.03 102.3 271.42 102.31 273.82C107.957 268.331 113.882 263.134 120.06 258.25C120 258.061 119.978 257.862 119.995 257.665C120.012 257.468 120.068 257.276 120.16 257.1Z" fill="url(#paint10_linear_1_2)"/>
<path d="M144.92 368.75C144.949 368.76 144.981 368.76 145.01 368.75C145.01 368.75 145.01 368.75 145.01 368.69C145.01 368.63 144.95 368.69 144.93 368.69C144.91 368.69 144.84 368.73 144.92 368.75Z" fill="url(#paint11_linear_1_2)"/>
<path d="M102.31 274.31V273.86L101.71 274.44C101.881 274.815 102.081 275.177 102.31 275.52V274.31Z" fill="url(#paint12_linear_1_2)"/>
</g>
<path d="M180.72 189.77C179.989 189.955 179.307 190.296 178.72 190.77C178.28 191.119 177.771 191.372 177.227 191.511C176.683 191.651 176.116 191.674 175.562 191.58C175.008 191.486 174.48 191.276 174.013 190.964C173.546 190.652 173.15 190.245 172.85 189.77C172.811 189.561 172.726 189.363 172.602 189.19C172.477 189.017 172.316 188.874 172.13 188.77L171.39 187.68C171.49 187.68 171.59 187.81 171.7 187.68C171.81 187.55 171.7 187.47 171.61 187.39C171.48 186.9 170.9 186.92 170.69 186.52C170.19 186.52 170.02 186.16 169.99 185.74C169.83 183.68 168.99 177.43 168.68 177.38C168.51 176.26 168.34 175.13 168.18 174.01C167.82 171.53 168.18 168.88 167.4 166.5C167.29 165.761 166.891 165.095 166.29 164.65C165.917 164.398 165.658 164.009 165.57 163.567C165.482 163.125 165.572 162.666 165.82 162.29C166.54 161.29 166.15 160.61 165.97 159.77C165.49 157.48 164.22 155.56 164.48 152.88C164.71 150.38 164.16 147.88 163.89 145.44C163.852 144.296 163.728 143.156 163.52 142.03C163.19 140.73 160.31 131.09 160.33 130.21C160.36 128.969 160.011 127.748 159.33 126.71C159.11 126.34 158.71 126.02 158.9 125.38C159.109 124.756 159.184 124.094 159.118 123.439C159.053 122.784 158.849 122.15 158.52 121.58C158.284 121.229 158.131 120.829 158.07 120.41C157.547 118.404 156.879 116.439 156.07 114.53C155.508 112.509 155.196 110.427 155.14 108.33C155.14 106.67 155.37 99.42 155.57 97.64C155.892 95.9175 156.116 94.178 156.24 92.43C156.233 92.2652 156.264 92.101 156.33 91.95C156.661 91.453 156.853 90.8761 156.884 90.2797C156.916 89.6833 156.787 89.0893 156.51 88.56C155.52 86.5207 155.215 84.2166 155.64 81.99C155.673 81.2532 155.599 80.5155 155.42 79.8C155.067 78.5072 154.234 77.3981 153.09 76.7C152.28 76.31 152.38 75.6 152.75 74.91C152.978 74.4561 153.242 74.0213 153.54 73.61C154.96 71.76 156.49 69.92 156.54 67.51C156.547 67.373 156.589 67.2401 156.663 67.1244C156.736 67.0087 156.839 66.9141 156.96 66.85C157.077 66.7984 157.182 66.7226 157.268 66.6277C157.354 66.5327 157.419 66.4207 157.458 66.299C157.498 66.1772 157.512 66.0484 157.498 65.9211C157.485 65.7938 157.444 65.6707 157.38 65.56C158.092 62.8579 158.366 60.0589 158.19 57.27C158.13 56.7 158.07 56.13 157.98 55.56C157.98 55.28 157.88 54.9 157.62 54.85C156.62 54.69 156.42 53.85 156.07 53.02C155.7 53.69 155.33 53.61 154.75 53.54C152.96 53.31 151.15 52.87 149.24 53.45C147.34 53.9143 145.608 54.9016 144.24 56.3C143.186 57.3897 142.519 58.7948 142.34 60.3C142.16 62.25 141.34 64.16 141.42 66.09C141.329 66.9094 141.482 67.7374 141.86 68.47C142.18 68.95 141.57 69.35 141.46 69.8C141.387 70.2517 141.162 70.6648 140.822 70.9705C140.482 71.2763 140.047 71.4561 139.59 71.48C138.772 71.5115 137.99 71.8289 137.382 72.3771C136.773 72.9252 136.376 73.6694 136.26 74.48C136.063 75.2937 135.681 76.0509 135.143 76.6927C134.605 77.3344 133.927 77.8434 133.16 78.18C131.53 78.97 130.36 80.58 128.88 81.65C126.076 83.7334 124.181 86.8167 123.59 90.26C122.888 93.6137 122.552 97.0338 122.59 100.46C122.571 101.053 122.518 101.644 122.43 102.23C122.525 102.877 122.405 103.537 122.09 104.11C121.96 106.86 121.83 109.61 121.85 112.34C121.854 115.032 122.16 117.716 122.76 120.34C123.107 121.575 123.538 122.784 124.05 123.96C124.479 125.101 124.814 126.275 125.05 127.47C125.16 127.97 124.74 128.58 124.99 129.1C125.67 129.45 125.75 130.1 125.73 130.87C125.73 131.78 125.73 132.63 126.68 132.97C127.09 133.12 126.89 133.59 126.85 133.97C126.6 136.06 126.32 138.15 126.06 140.24C125.899 140.747 125.792 141.27 125.74 141.8C125.74 142.06 125.52 142.1 125.33 142.15L122.33 142.8C122.634 142.224 122.786 141.58 122.77 140.928C122.754 140.277 122.572 139.641 122.24 139.08C121.46 137.46 120.92 135.69 120.19 134.08C119.983 133.406 119.559 132.82 118.983 132.413C118.408 132.006 117.714 131.801 117.01 131.83C117.29 131.24 117.83 131.28 118.1 130.94C118.897 128.84 119.467 126.661 119.8 124.44C119.819 124.32 119.804 124.197 119.756 124.086C119.709 123.974 119.63 123.879 119.53 123.81C118.77 123.12 118.14 122.39 118.88 121.11C118.88 121.11 118.93 121.04 118.88 121.02C118.08 119.61 118.98 117.49 117.46 116.3C116.412 115.38 115.083 114.841 113.69 114.77C112.359 114.664 111.021 114.664 109.69 114.77C108.136 114.991 106.689 115.69 105.55 116.77C105.06 117.21 104.55 116.88 104.1 117.22C104.1 117.65 103.8 117.62 103.53 117.63C103.131 117.88 102.747 118.154 102.38 118.45C100.75 119.92 100.48 121.87 100.09 123.73C99.62 126.01 100.6 127.86 101.33 129.73C101.65 130.54 102.33 131.48 103.43 131.28C104.33 131.11 105.19 131.21 106.06 130.99C106.93 130.77 107.24 131.26 107.42 131.92C107.491 132.269 107.511 132.626 107.48 132.98C107.48 133.98 107.26 134.2 106.33 134.06C105.88 133.99 105.7 134.06 105.71 134.52C105.72 134.98 105.4 135.15 105.08 135.37C104.449 135.722 103.911 136.219 103.51 136.82C103.099 137.388 102.641 137.92 102.14 138.41C100.84 140.04 99.14 141.61 99.43 143.84C99.4991 145.004 99.2428 146.164 98.69 147.19C98.5126 147.582 98.3655 147.986 98.25 148.4C97.7748 150.136 97.1629 151.831 96.42 153.47C94.4391 157.7 92.768 162.068 91.42 166.54C91.0501 168.198 90.308 169.751 89.25 171.08C88.38 172.08 87.42 173.08 88.09 174.4C88.09 174.47 88.09 174.6 88.09 174.69C87.87 175.29 88.16 175.6 88.63 175.64C89.33 175.7 89.26 175.94 88.83 176.42C88.4 176.9 88.49 177.21 88.98 177.42C89.0496 177.435 89.1147 177.467 89.1697 177.512C89.2247 177.558 89.2682 177.615 89.2965 177.681C89.3248 177.746 89.3372 177.817 89.3326 177.889C89.328 177.96 89.3065 178.029 89.27 178.09C88.86 178.99 89.42 178.8 89.92 178.77C90.42 178.74 90.58 178.36 90.82 178.04C91.28 177.47 91.52 176.64 92.45 176.65C92.72 176.65 92.72 176.33 92.84 176.14C93.26 175.49 92.94 174.74 93.43 174.14C93.7599 173.714 93.9361 173.189 93.93 172.65C94.2183 169.613 95.0694 166.656 96.44 163.93C97.44 161.74 98.89 159.69 99.87 157.46C100.31 156.216 100.835 155.003 101.44 153.83C101.44 154.37 101.44 154.69 101.44 155.01C101.44 157.48 101.44 159.94 101.63 162.39C101.82 164.84 102.63 167.21 102.41 169.8C102.41 170.45 102.84 170.25 103.2 170.21C103.56 170.17 104.07 169.94 104.26 170.56C104.59 171.65 104.98 172.72 105.39 173.77C106.094 175.983 107.079 178.097 108.32 180.06C108.615 180.485 108.821 180.966 108.924 181.473C109.027 181.98 109.026 182.503 108.92 183.01C108.525 185.268 108.35 187.559 108.4 189.85C108.41 190.712 108.316 191.571 108.12 192.41C107.68 194.79 107.19 197.17 106.71 199.55C106.779 199.958 106.719 200.377 106.54 200.75V201.75C106.54 202.34 106.54 202.93 106.54 203.52C106.54 203.65 106.54 203.77 106.61 203.9C106.683 203.972 106.736 204.061 106.764 204.159C106.792 204.257 106.794 204.361 106.77 204.46C106.893 204.87 106.929 205.301 106.878 205.726C106.826 206.151 106.687 206.561 106.47 206.93C106.336 207.095 106.258 207.298 106.247 207.51C106.236 207.722 106.293 207.932 106.41 208.11C106.481 208.195 106.526 208.298 106.542 208.407C106.558 208.517 106.544 208.628 106.5 208.73C105.784 210.678 105.849 212.828 106.68 214.73C107.65 214.684 108.615 214.574 109.57 214.4C111.94 213.98 114.3 213.5 116.66 213.18C118.139 213.067 119.519 212.395 120.52 211.3C120.67 211.15 120.89 210.69 121.23 210.97C121.57 211.25 121.34 211.48 121.23 211.76C120.83 212.53 120.97 212.95 121.83 212.89C122.323 212.775 122.837 212.775 123.33 212.89H123.59C124.247 212.754 124.92 212.707 125.59 212.75C128.374 212.482 131.133 211.994 133.84 211.29C134.626 211.126 135.35 210.745 135.93 210.19C136.62 208.6 136.41 207.53 135.16 207.37C134.246 207.192 133.426 206.691 132.85 205.96C132.55 205.696 132.346 205.339 132.27 204.947C132.194 204.554 132.25 204.147 132.43 203.79C132.684 202.886 132.991 201.998 133.35 201.13C133.728 200.429 133.9 199.635 133.845 198.84C133.79 198.045 133.511 197.282 133.04 196.64C132.593 196.055 132.305 195.365 132.205 194.635C132.105 193.906 132.197 193.163 132.47 192.48C132.846 191.483 133.104 190.446 133.24 189.39C133.62 186.95 134.05 184.5 134.37 182.06C134.8 178.89 135.53 175.76 136.26 172.62C136.26 172.31 137.98 166.21 138.1 164.33C138.215 163.766 138.362 163.208 138.54 162.66C139.692 158.576 141.098 154.569 142.75 150.66C143.076 149.7 143.559 148.801 144.18 148C144.51 147.62 144.7 147.6 144.87 148C145.25 148.89 145.61 149.79 146 150.66C146.79 152.4 147.57 154.14 148.4 155.86C148.63 156.34 149.04 156.66 149.16 157.27C149.43 158.969 149.956 160.618 150.72 162.16C151.141 163.085 151.395 164.077 151.47 165.09C151.532 166.365 151.891 167.609 152.52 168.72C152.86 169.19 153.43 169.52 153.52 170.14C153.81 172.14 154.94 173.68 155.6 175.47C156.542 178.048 157.281 180.696 157.81 183.39C157.88 183.72 158.23 183.91 158.15 184.32C158.811 186.507 159.589 188.656 160.48 190.76C160.675 191.141 160.776 191.562 160.776 191.99C160.776 192.418 160.675 192.839 160.48 193.22C160.022 193.923 159.828 194.765 159.93 195.597C160.033 196.43 160.426 197.199 161.04 197.77C161.264 197.98 161.436 198.24 161.544 198.528C161.651 198.816 161.691 199.124 161.66 199.43C161.605 200.191 161.739 200.954 162.05 201.65C162.513 202.415 162.771 203.286 162.8 204.18C162.789 204.413 162.867 204.642 163.02 204.819C163.173 204.996 163.388 205.107 163.62 205.13C164.863 205.34 166.139 205.206 167.31 204.74C169.328 203.916 171.28 202.94 173.15 201.82C175 200.72 177.03 200.06 178.75 198.65C180.47 197.24 182.62 195.83 183.4 193.29C184.05 191.22 182.67 189.33 180.72 189.77ZM126.15 164.38C125.45 166.26 124.82 168.15 124.21 170.05C123.272 172.997 122.534 176.004 122 179.05C121.35 182.409 121.098 185.832 121.25 189.25C121.44 192.25 121.33 195.35 121.68 198.35C121.751 199.184 121.642 200.024 121.361 200.812C121.08 201.6 120.633 202.319 120.05 202.92C120.43 201.54 119.75 200.65 119.17 199.7C118.641 198.791 118.381 197.751 118.42 196.7C118.529 194.949 118.482 193.192 118.28 191.45C118 189.79 118.75 188.2 119.14 186.61C119.623 184.783 119.957 182.921 120.14 181.04C120.33 178.55 120.36 176.04 120.5 173.58C120.62 171.34 119.99 169.25 120.29 166.98C120.281 166.798 120.222 166.621 120.12 166.47C120.02 166.317 119.955 166.145 119.928 165.965C119.901 165.784 119.914 165.6 119.965 165.425C120.017 165.25 120.105 165.089 120.225 164.951C120.345 164.814 120.494 164.704 120.66 164.63C121.43 164.18 121.32 163.7 121.01 163.29C120.81 162.99 120.672 162.654 120.603 162.3C120.535 161.947 120.537 161.583 120.61 161.23C120.642 160.005 120.514 158.782 120.23 157.59C120.05 156.19 119.97 154.72 119.82 153.29C119.756 151.887 119.826 150.48 120.03 149.09C120.021 148.93 120.072 148.772 120.174 148.648C120.276 148.524 120.421 148.442 120.58 148.42C122.573 147.921 124.539 147.32 126.47 146.62C127.04 146.38 127.02 146.8 127.03 147.15C126.975 148.15 126.996 149.153 127.09 150.15C127.45 152.27 126.97 154.49 126.97 156.65C127.028 157.521 127.182 158.383 127.43 159.22C127.78 161.03 126.77 162.71 126.15 164.38Z" fill="#351E14"/>
<g style="mix-blend-mode:multiply">
<path d="M327.95 199.4C328.318 198.002 328.865 196.657 329.58 195.4C330.69 193.45 332.58 193.4 334.92 194.86C331.61 194.68 330.32 196.54 329.44 198.8C329.36 199.02 329.29 199.25 329.21 199.47L331.52 199.75C331.794 199.207 332.13 198.697 332.52 198.23C333.85 196.64 335.9 197.07 337.85 199.23C338.279 199.712 338.683 200.216 339.06 200.74C340.24 200.92 341.41 201.11 342.58 201.31C341.959 199.97 341.237 198.68 340.42 197.45C339.112 195.491 337.552 193.712 335.78 192.16C333.39 190.09 330.66 189.88 328.78 191.46C327.69 192.401 326.814 193.563 326.21 194.87C325.608 196.194 325.175 197.588 324.92 199.02L327.95 199.4Z" fill="url(#paint13_linear_1_2)"/>
<path d="M292.93 198.14C293.065 197.057 293.275 195.984 293.56 194.93C293.999 193.45 294.757 192.085 295.78 190.93C296.88 189.64 298.44 189.74 300.52 190.99C297.05 190.88 295.6 192.81 294.89 195.31C294.63 196.218 294.42 197.139 294.26 198.07H296.4C296.4 197.86 296.45 197.66 296.48 197.46C296.602 196.785 296.853 196.14 297.22 195.56C298.87 192.49 301.65 192.8 304.4 196.34C304.824 196.89 305.212 197.468 305.56 198.07C306.56 198.07 307.56 198.07 308.63 198.14C307.372 194.977 305.476 192.108 303.06 189.71C299.5 186.26 295.7 185.88 293.25 188.77C292.568 189.582 292.011 190.492 291.6 191.47C290.72 193.632 290.19 195.921 290.03 198.25L292.93 198.14Z" fill="url(#paint14_linear_1_2)"/>
</g>
<path d="M357.31 176.89C355.762 175.62 354.037 174.583 352.19 173.81C351.218 173.256 350.434 172.424 349.94 171.42C350.89 168.85 350.94 165.65 349.71 163.84C349.48 163.52 349.2 163.08 348.88 163.01C347.44 162.7 347.46 161.57 347.28 160.49C346.876 157.593 345.853 154.816 344.28 152.35C343.845 151.491 343.735 150.504 343.97 149.57C344.337 148.287 344.259 146.918 343.751 145.684C343.243 144.45 342.334 143.423 341.17 142.77L344.36 139.92C344.539 139.793 344.689 139.63 344.8 139.44C345.214 138.526 345.571 137.588 345.87 136.63C345.988 136.137 345.975 135.623 345.833 135.137C345.69 134.651 345.424 134.21 345.059 133.859C344.695 133.507 344.245 133.257 343.754 133.133C343.263 133.008 342.748 133.014 342.26 133.15C340.85 133.43 339.45 133.74 338.03 134.04C337.03 129.83 335.96 125.71 334.95 121.59C334.876 120.985 334.642 120.411 334.27 119.927C333.899 119.443 333.405 119.068 332.84 118.84C331.153 117.969 329.559 116.93 328.08 115.74C327.83 115.56 327.52 115.16 327.56 114.92C327.81 113.52 327.12 112.03 328.46 110.7C329.12 110.03 329.06 108.54 329.15 107.41C329.328 105.472 329.402 103.526 329.37 101.58C329.37 99.98 328.86 98.5 327.03 97.97C326.86 97.97 326.64 97.86 326.57 97.73C325.4 95.67 323.57 96.33 322.18 97.03C320.145 98.0069 318.296 99.3337 316.72 100.95C316.05 101.761 315.605 102.734 315.429 103.771C315.254 104.809 315.354 105.874 315.72 106.86C316.611 109.147 317.64 111.377 318.8 113.54C317.956 114.131 317.074 114.665 316.16 115.14C313.9 116.14 311.58 117.02 309.3 117.98C308.676 118.208 308.11 118.574 307.647 119.05C307.183 119.526 306.832 120.1 306.62 120.73C305.165 124.687 303.045 128.367 300.35 131.61C299.265 132.85 298.609 134.408 298.479 136.051C298.349 137.694 298.753 139.335 299.63 140.73C300.63 142.54 301.76 144.26 302.81 146C295.75 150.46 293.5 157.8 292.16 165.56C291.116 170.806 291.485 176.234 293.23 181.29C293.633 182.416 294.174 183.487 294.84 184.48C297.25 188.07 300.98 188.71 304.5 186.16C307.075 184.181 309.054 181.531 310.22 178.5C311.27 176.02 312 173.41 312.86 170.86C312.99 170.49 313.07 170.11 313.2 169.6C315.25 169.89 317.13 170.13 319.01 170.43C319.38 170.49 319.7 170.83 320.07 170.92C320.721 171.118 321.392 171.245 322.07 171.3C323.27 171.36 324.48 171.3 325.83 171.3C325.77 172.11 325.73 172.71 325.69 173.3C325.31 177.98 325.47 182.62 327.22 187.04C327.828 188.554 328.683 189.956 329.75 191.19C330.537 192.209 331.679 192.895 332.948 193.11C334.218 193.325 335.522 193.053 336.6 192.35C338.352 191.25 339.901 189.856 341.18 188.23C342.7 186.255 343.911 184.06 344.77 181.72C348.77 183.72 347.94 186.2 350.88 183.5C353.82 180.8 359.62 178.68 357.31 176.89ZM297.31 182.89C296.332 181.476 295.599 179.907 295.14 178.25C293.54 171.87 294.36 165.59 296.34 159.42C297.213 156.292 298.805 153.412 300.99 151.01C301.874 150.214 302.806 149.473 303.78 148.79C304.34 149.79 304.08 150.29 303.41 150.79C302.361 151.529 301.434 152.427 300.66 153.45C298.193 157.012 296.537 161.071 295.81 165.343C295.083 169.614 295.301 173.992 296.45 178.17C297.14 180.9 298.57 183.25 301.98 184.07C299.9 184.85 298.36 184.5 297.28 182.93L297.31 182.89ZM305.81 179.76C303.1 182.61 300.36 182.18 298.74 178.61C298.392 177.94 298.146 177.222 298.01 176.48C297.659 174.213 297.472 171.924 297.45 169.63C297.49 164.777 298.852 160.027 301.39 155.89C302.173 154.807 303.029 153.778 303.95 152.81L304.4 152.72C304.17 154.84 305.28 155.03 306.89 154.54C306.94 155.49 306.96 156.22 307.02 156.94C307.15 158.59 306.28 160.56 308.51 161.53C308.6 161.53 308.64 161.76 308.65 161.89C308.75 163.28 308.85 164.67 308.94 166.05C307.75 166.2 307.06 166.05 306.94 164.8C306.88 164.35 306.3 163.64 305.94 163.63C305.648 163.647 305.365 163.733 305.114 163.883C304.864 164.033 304.653 164.241 304.5 164.49C304.002 165.655 303.705 166.896 303.62 168.16C303.625 168.596 303.725 169.027 303.913 169.42C304.101 169.814 304.373 170.162 304.71 170.44C305.61 170.93 306.06 169.82 306.53 169.13C307 168.44 308.85 168.66 309.22 169.4C309.46 169.89 309.76 170.34 310.1 170.93C309.464 174.215 307.974 177.274 305.78 179.8L305.81 179.76ZM318.4 167.55L313.64 166.86C313.72 166.02 313.78 165.37 313.86 164.54C315.3 164.72 316.57 164.84 317.86 165.07C318.018 165.137 318.158 165.241 318.268 165.373C318.378 165.505 318.454 165.662 318.49 165.83C318.511 166.419 318.47 167.009 318.37 167.59L318.4 167.55ZM318.83 163.18L314.06 162.56L314.12 162.06L318.9 162.68L318.83 163.18ZM325.45 168.65C325.39 168.53 325.33 168.41 325.28 168.29C325.39 167.95 325.5 167.59 325.62 167.24L326.03 168.47C325.81 168.57 325.59 168.62 325.42 168.69L325.45 168.65ZM330.52 187.5C329.515 185.445 328.84 183.245 328.52 180.98C328.343 179.266 328.296 177.541 328.38 175.82L329.38 178.67C329.507 180.488 329.863 182.282 330.44 184.01C331.3 186.54 332.56 188.78 335.82 189.48C333.52 190.33 331.64 189.75 330.52 187.5ZM338.66 185.81C336.73 187.5 334.71 187.39 333.4 185.41C332.862 184.589 332.425 183.706 332.1 182.78C332.494 182.945 332.923 183.005 333.347 182.956C333.77 182.907 334.174 182.75 334.52 182.5C336.31 181.22 338.52 175.38 338.52 175.38C339.25 177.41 340.6 179.16 342.38 180.38C341.584 182.441 340.321 184.289 338.69 185.78L338.66 185.81Z" fill="#351E14"/>
<g style="mix-blend-mode:multiply" opacity="0.68">
<path d="M384.17 263.1C366.38 278.81 346.05 290 323.86 297.83C286.63 310.96 248.52 316.29 209.52 312.36H209.24C248.38 324.83 289.46 328.89 332.37 324.81C339.04 324.17 345.68 323.21 352.37 322.1C388.173 314.344 421.728 298.503 450.47 275.79C429.39 270.245 407.962 266.119 386.33 263.44C386.07 263.4 384.19 263.08 384.17 263.1Z" fill="url(#paint15_linear_1_2)"/>
</g>
<path d="M99.79 292.4C98.8664 291.634 97.8311 291.013 96.72 290.56C95.7665 290.174 94.7488 289.97 93.72 289.96C92.6519 289.903 91.5956 290.206 90.72 290.82C90.3573 291.073 90.0626 291.412 89.862 291.806C89.6614 292.2 89.5611 292.638 89.57 293.08C89.5489 293.66 89.7532 294.227 90.14 294.66C90.5768 295.105 91.0878 295.47 91.65 295.74C92.3297 296.063 93.0355 296.327 93.76 296.53C94.55 296.75 95.32 296.99 96.09 297.25C98.673 297.966 101.006 299.385 102.83 301.35C104.324 303.254 105.083 305.632 104.97 308.05C104.992 309.763 104.673 311.462 104.03 313.05C103.427 314.531 102.493 315.855 101.3 316.92C100.011 318.042 98.5071 318.889 96.88 319.41C94.9684 320.028 92.9687 320.328 90.96 320.3C86.3973 320.306 81.948 318.879 78.24 316.22L82.24 308.64C83.5064 309.814 84.951 310.779 86.52 311.5C87.8007 312.087 89.1911 312.397 90.6 312.41C91.8348 312.505 93.06 312.13 94.03 311.36C94.3757 311.062 94.6542 310.694 94.8473 310.28C95.0403 309.866 95.1435 309.416 95.15 308.96C95.1629 308.472 95.0673 307.987 94.87 307.54C94.6258 307.101 94.2836 306.725 93.87 306.44C93.3264 306.052 92.7348 305.736 92.11 305.5C91.39 305.22 90.52 304.887 89.5 304.5C88.28 304.12 87.09 303.7 85.93 303.23C84.7976 302.789 83.744 302.168 82.81 301.39C81.8811 300.595 81.1342 299.609 80.62 298.5C80.0122 297.101 79.7252 295.584 79.78 294.06C79.7541 292.394 80.0565 290.739 80.67 289.19C81.2299 287.783 82.0781 286.509 83.16 285.45C84.287 284.373 85.63 283.548 87.1 283.03C88.7676 282.433 90.5291 282.142 92.3 282.17C94.1969 282.181 96.0849 282.429 97.92 282.91C99.8712 283.407 101.755 284.139 103.53 285.09L99.79 292.4Z" fill="white"/>
<path d="M131.93 313.04H118.52L116.36 319.32H106.36L120.13 283.14H130.4L144.17 319.32H134.17L131.93 313.04ZM129.44 305.89L125.22 293.84L121 305.89H129.44Z" fill="white"/>
<path d="M147.77 319.32V283.14H157.17L174.52 305.26V283.14H183.88V319.32H174.52L157.17 297.2V319.32H147.77Z" fill="white"/>
<path d="M204.72 291.11V319.32H195.32V291.11H187.59V283.11H212.45V291.11H204.72Z" fill="white"/>
<path d="M236.63 313.04H223.19L221.04 319.32H211.04L224.81 283.14H235.08L248.85 319.32H238.85L236.63 313.04ZM234.13 305.89L229.91 293.84L225.69 305.89H234.13Z" fill="white"/>
<path d="M285.89 295.23C284.952 293.98 283.735 292.967 282.335 292.272C280.936 291.578 279.393 291.221 277.83 291.23C276.488 291.218 275.157 291.48 273.92 292C272.759 292.484 271.706 293.197 270.825 294.095C269.944 294.994 269.252 296.06 268.79 297.23C268.285 298.478 268.03 299.813 268.04 301.16C268.025 302.53 268.279 303.889 268.79 305.16C269.259 306.336 269.956 307.407 270.842 308.312C271.728 309.217 272.784 309.937 273.95 310.43C275.159 310.952 276.463 311.214 277.78 311.2C279.327 311.173 280.85 310.816 282.249 310.154C283.647 309.492 284.889 308.539 285.89 307.36V318.5L284.89 318.84C283.586 319.315 282.249 319.693 280.89 319.97C279.674 320.207 278.439 320.328 277.2 320.33C274.739 320.34 272.301 319.857 270.03 318.91C267.789 317.979 265.751 316.621 264.03 314.91C262.262 313.16 260.838 311.094 259.83 308.82C258.794 306.392 258.26 303.78 258.26 301.14C258.26 298.5 258.794 295.888 259.83 293.46C260.819 291.209 262.235 289.171 264 287.46C267.58 284.019 272.355 282.101 277.32 282.11C278.745 282.108 280.167 282.259 281.56 282.56C283.062 282.903 284.531 283.379 285.95 283.98L285.89 295.23Z" fill="white"/>
<path d="M321.45 319.32H309.74L300.74 305.41V319.32H291.33V283.14H305.97C307.767 283.104 309.554 283.406 311.24 284.03C312.644 284.552 313.914 285.378 314.96 286.45C315.931 287.47 316.684 288.678 317.17 290C317.673 291.384 317.923 292.847 317.91 294.32C318.019 296.715 317.314 299.076 315.91 301.02C314.42 302.829 312.343 304.057 310.04 304.49L321.45 319.32ZM300.77 299.32H302.52C304.031 299.421 305.534 299.016 306.79 298.17C307.259 297.755 307.634 297.246 307.891 296.675C308.148 296.104 308.281 295.486 308.281 294.86C308.281 294.234 308.148 293.616 307.891 293.045C307.634 292.474 307.259 291.965 306.79 291.55C305.534 290.704 304.031 290.299 302.52 290.4H300.75L300.77 299.32Z" fill="white"/>
<path d="M333.97 283.14V302.82C333.97 303.87 333.97 304.95 334.09 306.05C334.152 307.085 334.395 308.1 334.81 309.05C335.213 309.952 335.874 310.714 336.71 311.24C337.818 311.862 339.081 312.154 340.35 312.08C341.613 312.156 342.87 311.865 343.97 311.24C344.797 310.704 345.456 309.945 345.87 309.05C346.296 308.103 346.547 307.086 346.61 306.05C346.69 304.95 346.73 303.87 346.73 302.82V283.14H356.09V304.14C356.09 309.767 354.803 313.877 352.23 316.47C349.657 319.063 345.697 320.36 340.35 320.36C335.017 320.36 331.05 319.063 328.45 316.47C325.85 313.877 324.557 309.767 324.57 304.14V283.14H333.97Z" fill="white"/>
<path d="M375.9 311.36H391.07V319.36H360.12L377.25 291.15H363V283.15H392.94L375.9 311.36Z" fill="white"/>
<path d="M99.24 354.5H88.71V360.2H98.65V367.7H88.71V373.57H99.24V381.07H79.86V347H99.24V354.5Z" fill="#C5C0A7"/>
<path d="M112.01 347H125.11C127.362 346.987 129.591 347.465 131.64 348.4C133.63 349.306 135.437 350.57 136.97 352.13C138.502 353.693 139.724 355.532 140.57 357.55C141.428 359.596 141.87 361.792 141.87 364.01C141.87 366.228 141.428 368.424 140.57 370.47C139.736 372.497 138.525 374.346 137 375.92C135.471 377.49 133.664 378.761 131.67 379.67C129.604 380.608 127.359 381.085 125.09 381.07H111.99L112.01 347ZM120.87 373.57H122.87C124.273 373.594 125.668 373.35 126.98 372.85C128.106 372.394 129.127 371.714 129.98 370.85C130.817 369.994 131.464 368.972 131.88 367.85C132.327 366.63 132.547 365.339 132.53 364.04C132.542 362.743 132.315 361.455 131.86 360.24C131.424 359.123 130.771 358.104 129.94 357.24C129.073 356.369 128.034 355.688 126.89 355.24C125.593 354.735 124.211 354.487 122.82 354.51H120.82L120.87 373.57Z" fill="#C5C0A7"/>
<path d="M158.88 347V365.5C158.88 366.5 158.88 367.5 158.99 368.55C159.05 369.522 159.28 370.477 159.67 371.37C160.052 372.217 160.674 372.934 161.46 373.43C162.506 374.012 163.695 374.286 164.89 374.22C166.079 374.287 167.262 374.013 168.3 373.43C169.076 372.925 169.693 372.211 170.08 371.37C170.489 370.482 170.73 369.526 170.79 368.55C170.86 367.55 170.9 366.49 170.9 365.5V347H179.71V366.75C179.71 372.083 178.497 375.953 176.07 378.36C173.643 380.767 169.917 381.987 164.89 382.02C159.857 382.02 156.12 380.8 153.68 378.36C151.24 375.92 150.02 372.05 150.02 366.75V347H158.88Z" fill="#C5C0A7"/>
<path d="M214.88 358.39C213.995 357.217 212.847 356.266 211.529 355.615C210.212 354.964 208.76 354.63 207.29 354.64C206.027 354.628 204.775 354.873 203.61 355.36C202.516 355.825 201.526 356.505 200.7 357.36C199.86 358.217 199.206 359.238 198.78 360.36C198.305 361.535 198.068 362.793 198.08 364.06C198.064 365.344 198.302 366.618 198.78 367.81C199.217 368.931 199.877 369.952 200.72 370.81C201.569 371.679 202.585 372.367 203.708 372.833C204.83 373.299 206.035 373.532 207.25 373.52C208.706 373.496 210.139 373.162 211.455 372.54C212.771 371.917 213.939 371.02 214.88 369.91V380.3L213.98 380.62C212.744 381.066 211.478 381.42 210.19 381.68C209.044 381.905 207.878 382.019 206.71 382.02C202.054 382.025 197.583 380.201 194.26 376.94C192.579 375.294 191.222 373.347 190.26 371.2C189.28 368.916 188.775 366.456 188.775 363.97C188.775 361.484 189.28 359.024 190.26 356.74C192.124 352.477 195.591 349.119 199.91 347.39C202.073 346.499 204.391 346.044 206.73 346.05C208.075 346.052 209.416 346.196 210.73 346.48C212.145 346.8 213.527 347.248 214.86 347.82L214.88 358.39Z" fill="#C5C0A7"/>
<path d="M246.18 375.15H233.52L231.52 381.07H222.07L235.07 347H244.74L257.74 381.07H248.29L246.18 375.15ZM243.83 368.42L239.83 357.08L235.83 368.42H243.83Z" fill="#C5C0A7"/>
<path d="M275.52 354.5V381.07H266.62V354.5H259.34V347H282.75V354.5H275.52Z" fill="#C5C0A7"/>
<path d="M301.04 347V381.07H292.19V347H301.04Z" fill="#C5C0A7"/>
<path d="M309.65 364.04C309.632 361.61 310.108 359.201 311.05 356.96C311.965 354.793 313.307 352.833 314.996 351.196C316.685 349.558 318.686 348.278 320.88 347.43C325.78 345.59 331.18 345.59 336.08 347.43C338.315 348.29 340.355 349.589 342.08 351.25C343.747 352.877 345.076 354.817 345.99 356.96C347.856 361.492 347.856 366.578 345.99 371.11C345.079 373.254 343.749 375.195 342.08 376.82C340.355 378.481 338.315 379.78 336.08 380.64C331.18 382.48 325.78 382.48 320.88 380.64C318.686 379.792 316.685 378.512 314.996 376.874C313.307 375.237 311.965 373.277 311.05 371.11C310.108 368.873 309.632 366.467 309.65 364.04ZM318.91 364.04C318.899 365.33 319.162 366.608 319.68 367.79C320.172 368.915 320.879 369.934 321.76 370.79C322.634 371.652 323.671 372.332 324.81 372.79C327.174 373.726 329.806 373.726 332.17 372.79C334.475 371.883 336.334 370.11 337.35 367.85C337.852 366.663 338.11 365.388 338.11 364.1C338.11 362.812 337.852 361.537 337.35 360.35C336.849 359.222 336.132 358.203 335.24 357.35C333.868 356.065 332.161 355.194 330.314 354.84C328.468 354.486 326.56 354.663 324.81 355.35C323.668 355.804 322.626 356.48 321.746 357.338C320.866 358.196 320.164 359.22 319.68 360.35C319.168 361.513 318.906 362.77 318.91 364.04Z" fill="#C5C0A7"/>
<path d="M355.98 381.07V347H364.84L381.19 367.83V347H390V381.07H381.19L364.84 360.24V381.07H355.98Z" fill="#C5C0A7"/>
<path d="M88.92 329.97C88.4877 329.55 87.9829 329.211 87.43 328.97C86.9094 328.758 86.3523 328.649 85.79 328.65C85.2605 328.626 84.7318 328.714 84.2388 328.908C83.7459 329.103 83.2998 329.4 82.93 329.78C82.26 330.633 81.8891 331.682 81.8746 332.766C81.8602 333.851 82.2029 334.91 82.85 335.78C83.1929 336.149 83.6121 336.438 84.0785 336.628C84.5448 336.818 85.047 336.904 85.55 336.88C86.1705 336.884 86.7856 336.765 87.36 336.53C87.9318 336.297 88.4543 335.957 88.9 335.53V338.13C88.3996 338.442 87.8576 338.681 87.29 338.84C86.717 338.999 86.1245 339.076 85.53 339.07C84.7145 339.099 83.9018 338.958 83.1441 338.655C82.3865 338.352 81.7004 337.894 81.13 337.31C80.0226 336.089 79.4091 334.499 79.4091 332.85C79.4091 331.201 80.0226 329.611 81.13 328.39C81.7018 327.809 82.3859 327.351 83.1407 327.043C83.8955 326.735 84.705 326.585 85.52 326.6C86.7179 326.586 87.9002 326.871 88.96 327.43L88.92 329.97Z" fill="white"/>
<path d="M113.18 332.83C113.185 333.651 113.033 334.466 112.73 335.23C112.448 335.981 112.008 336.663 111.44 337.23C110.869 337.81 110.189 338.272 109.44 338.59C108.078 339.167 106.547 339.203 105.16 338.69C104.501 338.441 103.889 338.083 103.35 337.63C102.658 337.052 102.107 336.324 101.74 335.5C101.357 334.666 101.163 333.758 101.17 332.84C101.165 332.019 101.317 331.204 101.62 330.44C101.913 329.692 102.355 329.011 102.92 328.44C103.473 327.871 104.133 327.417 104.863 327.104C105.592 326.792 106.376 326.627 107.17 326.62C107.955 326.621 108.731 326.784 109.45 327.1C110.184 327.411 110.847 327.866 111.4 328.44C111.963 329.013 112.405 329.693 112.7 330.44C113.007 331.2 113.17 332.01 113.18 332.83ZM107.18 336.83C107.656 336.84 108.128 336.743 108.562 336.548C108.996 336.352 109.382 336.063 109.69 335.7C110.369 334.917 110.726 333.906 110.69 332.87C110.72 331.835 110.364 330.826 109.69 330.04C109.377 329.685 108.993 329.4 108.562 329.205C108.131 329.011 107.663 328.91 107.19 328.91C106.717 328.91 106.249 329.011 105.818 329.205C105.387 329.4 105.003 329.685 104.69 330.04C104.047 330.845 103.696 331.845 103.696 332.875C103.696 333.905 104.047 334.905 104.69 335.71C105.005 336.064 105.394 336.344 105.83 336.531C106.265 336.717 106.736 336.806 107.21 336.79L107.18 336.83Z" fill="white"/>
<path d="M135.4 326.89V334.26C135.451 334.908 135.371 335.56 135.165 336.177C134.959 336.794 134.63 337.363 134.2 337.85C133.706 338.279 133.131 338.605 132.51 338.81C131.888 339.014 131.232 339.092 130.58 339.04C129.922 339.093 129.259 339.016 128.631 338.811C128.003 338.607 127.421 338.28 126.92 337.85C126.486 337.365 126.155 336.796 125.947 336.179C125.739 335.562 125.658 334.909 125.71 334.26V326.89H128.09V333.89C128.033 334.673 128.253 335.452 128.71 336.09C128.937 336.346 129.221 336.546 129.538 336.675C129.856 336.803 130.199 336.856 130.54 336.83C130.884 336.855 131.23 336.801 131.55 336.673C131.871 336.545 132.158 336.345 132.39 336.09C132.852 335.454 133.076 334.675 133.02 333.89V326.89H135.4Z" fill="white"/>
<path d="M148.44 338.73V326.89H150.93L155.93 333.78C156.11 334.039 156.267 334.314 156.4 334.6C156.57 334.95 156.75 335.37 156.93 335.85C156.88 335.5 156.83 335.15 156.81 334.85C156.79 334.55 156.81 334.07 156.81 333.55V326.93H159.1V338.77H156.75L151.65 331.77C151.472 331.509 151.315 331.235 151.18 330.95C151.01 330.59 150.83 330.17 150.65 329.68C150.65 330.02 150.74 330.36 150.77 330.68C150.8 331 150.77 331.47 150.77 332V338.76L148.44 338.73Z" fill="white"/>
<path d="M176.26 329.04V338.73H173.86V329.04H171.11V326.89H179V329.04H176.26Z" fill="white"/>
<path d="M193.43 338.73V333.33L189.63 326.89H192.45L194.11 330.13C194.19 330.29 194.27 330.5 194.36 330.74C194.45 330.98 194.54 331.28 194.63 331.6C194.697 331.339 194.777 331.082 194.87 330.83C194.96 330.58 195.06 330.35 195.17 330.11L196.82 326.89H199.63L195.83 333.33V338.73H193.43Z" fill="white"/>
<path d="M238.04 332.83C238.045 333.651 237.893 334.466 237.59 335.23C237.301 335.978 236.862 336.658 236.3 337.23C235.728 337.809 235.049 338.271 234.3 338.59C233.586 338.895 232.817 339.052 232.04 339.05C231.357 339.047 230.681 338.926 230.04 338.69C229.385 338.439 228.777 338.081 228.24 337.63C227.547 337.051 226.993 336.323 226.62 335.5C226.245 334.664 226.054 333.757 226.06 332.84C226.056 332.02 226.205 331.206 226.5 330.44C226.797 329.694 227.239 329.014 227.8 328.44C228.369 327.863 229.05 327.407 229.8 327.1C230.525 326.783 231.308 326.62 232.1 326.62C232.882 326.62 233.655 326.784 234.37 327.1C235.12 327.407 235.801 327.863 236.37 328.44C236.933 329.011 237.372 329.692 237.66 330.44C237.938 331.205 238.067 332.016 238.04 332.83ZM232.04 336.83C232.516 336.84 232.988 336.743 233.422 336.548C233.856 336.352 234.242 336.063 234.55 335.7C235.194 334.898 235.546 333.899 235.546 332.87C235.546 331.841 235.194 330.842 234.55 330.04C234.237 329.685 233.853 329.4 233.422 329.205C232.991 329.011 232.523 328.91 232.05 328.91C231.577 328.91 231.109 329.011 230.678 329.205C230.247 329.4 229.862 329.685 229.55 330.04C228.903 330.843 228.55 331.844 228.55 332.875C228.55 333.906 228.903 334.907 229.55 335.71C229.867 336.062 230.256 336.34 230.691 336.527C231.126 336.713 231.597 336.803 232.07 336.79L232.04 336.83Z" fill="white"/>
<path d="M250.62 338.73V326.89H257.22V329.02H253.01V331.5H257.22V333.65H253.01V338.77L250.62 338.73Z" fill="white"/>
<path d="M269.63 338.73V326.89H276.23V329.02H272.02V331.5H276.23V333.65H272.02V338.77L269.63 338.73Z" fill="white"/>
<path d="M288.68 338.73V326.89H291.08V338.73H288.68Z" fill="white"/>
<path d="M313.22 329.97C312.79 329.547 312.284 329.208 311.73 328.97C311.21 328.757 310.652 328.648 310.09 328.65C309.56 328.626 309.032 328.714 308.539 328.908C308.046 329.103 307.6 329.4 307.23 329.78C306.558 330.632 306.187 331.683 306.174 332.768C306.162 333.853 306.508 334.912 307.16 335.78C307.5 336.15 307.917 336.44 308.382 336.63C308.847 336.82 309.348 336.905 309.85 336.88C310.47 336.884 311.086 336.765 311.66 336.53C312.234 336.295 312.759 335.956 313.21 335.53V338.13C312.712 338.44 312.174 338.679 311.61 338.84C311.034 338.999 310.438 339.076 309.84 339.07C309.024 339.099 308.212 338.958 307.454 338.655C306.696 338.352 306.01 337.894 305.44 337.31C304.333 336.089 303.719 334.499 303.719 332.85C303.719 331.201 304.333 329.611 305.44 328.39C306.021 327.807 306.716 327.35 307.482 327.047C308.247 326.744 309.067 326.602 309.89 326.63C311.084 326.618 312.263 326.903 313.32 327.46L313.22 329.97Z" fill="white"/>
<path d="M326 338.73V326.89H332.61V329.02H328.4V331.5H332.61V333.65H328.4V336.65H332.61V338.8L326 338.73Z" fill="white"/>
<path d="M372.36 332.83C372.364 333.65 372.215 334.464 371.92 335.23C371.631 335.98 371.188 336.661 370.62 337.23C370.049 337.81 369.369 338.272 368.62 338.59C367.902 338.895 367.13 339.052 366.35 339.05C365.667 339.048 364.99 338.926 364.35 338.69C363.693 338.444 363.084 338.085 362.55 337.63C361.852 337.055 361.297 336.326 360.93 335.5C360.547 334.666 360.353 333.758 360.36 332.84C360.355 332.019 360.507 331.204 360.81 330.44C361.103 329.692 361.545 329.011 362.11 328.44C362.663 327.871 363.323 327.417 364.053 327.104C364.782 326.792 365.566 326.627 366.36 326.62C367.145 326.621 367.921 326.784 368.64 327.1C369.393 327.402 370.074 327.859 370.64 328.44C371.203 329.013 371.645 329.693 371.94 330.44C372.232 331.202 372.374 332.014 372.36 332.83ZM366.36 336.83C366.837 336.84 367.311 336.743 367.747 336.548C368.183 336.353 368.57 336.063 368.88 335.7C369.528 334.899 369.881 333.9 369.881 332.87C369.881 331.84 369.528 330.841 368.88 330.04C368.577 329.672 368.195 329.378 367.762 329.179C367.329 328.979 366.856 328.881 366.38 328.89C365.899 328.879 365.422 328.977 364.984 329.176C364.546 329.375 364.158 329.67 363.85 330.04C363.207 330.845 362.856 331.845 362.856 332.875C362.856 333.905 363.207 334.905 363.85 335.71C364.168 336.065 364.561 336.346 365 336.533C365.439 336.72 365.913 336.807 366.39 336.79L366.36 336.83Z" fill="white"/>
<path d="M384.94 338.73V326.89H391.52V329.02H387.32V331.5H391.52V333.65H387.32V338.77L384.94 338.73Z" fill="white"/>
</g>
<defs>
<linearGradient id="paint0_linear_1_2" x1="129.443" y1="255.677" x2="129.443" y2="84.7946" gradientUnits="userSpaceOnUse">
<stop stop-color="#117D94" stop-opacity="0"/>
<stop offset="1" stop-color="#117D94"/>
</linearGradient>
<linearGradient id="paint1_linear_1_2" x1="176.445" y1="255.991" x2="176.445" y2="78.7382" gradientUnits="userSpaceOnUse">
<stop stop-color="#117D94" stop-opacity="0"/>
<stop offset="1" stop-color="#117D94"/>
</linearGradient>
<linearGradient id="paint2_linear_1_2" x1="168.935" y1="255.971" x2="168.935" y2="78.7872" gradientUnits="userSpaceOnUse">
<stop stop-color="#117D94" stop-opacity="0"/>
<stop offset="1" stop-color="#117D94"/>
</linearGradient>
<linearGradient id="paint3_linear_1_2" x1="179.555" y1="255.981" x2="179.555" y2="78.7581" gradientUnits="userSpaceOnUse">
<stop stop-color="#117D94" stop-opacity="0"/>
<stop offset="1" stop-color="#117D94"/>
</linearGradient>
<linearGradient id="paint4_linear_1_2" x1="419.823" y1="264.382" x2="409.675" y2="158.839" gradientUnits="userSpaceOnUse">
<stop stop-color="#117D94" stop-opacity="0"/>
<stop offset="1" stop-color="#117D94"/>
</linearGradient>
<linearGradient id="paint5_linear_1_2" x1="242.22" y1="270.16" x2="270.92" y2="392.16" gradientUnits="userSpaceOnUse">
<stop stop-color="#1AADAD"/>
<stop offset="1" stop-color="#096289"/>
</linearGradient>
<linearGradient id="paint6_linear_1_2" x1="204.46" y1="357.57" x2="247.52" y2="193.41" gradientUnits="userSpaceOnUse">
<stop stop-color="#169EB5"/>
<stop offset="1" stop-color="white"/>
</linearGradient>
<linearGradient id="paint7_linear_1_2" x1="238.01" y1="205.13" x2="236.44" y2="186.52" gradientUnits="userSpaceOnUse">
<stop stop-color="#117D94" stop-opacity="0"/>
<stop offset="1" stop-color="#117D94"/>
</linearGradient>
<linearGradient id="paint8_linear_1_2" x1="218.76" y1="206.75" x2="217.19" y2="188.14" gradientUnits="userSpaceOnUse">
<stop stop-color="#117D94" stop-opacity="0"/>
<stop offset="1" stop-color="#117D94"/>
</linearGradient>
<linearGradient id="paint9_linear_1_2" x1="152.47" y1="189.26" x2="170.41" y2="227.84" gradientUnits="userSpaceOnUse">
<stop stop-color="#169EB5"/>
<stop offset="1" stop-color="white"/>
</linearGradient>
<linearGradient id="paint10_linear_1_2" x1="105.1" y1="211.3" x2="123.04" y2="249.87" gradientUnits="userSpaceOnUse">
<stop stop-color="#169EB5"/>
<stop offset="1" stop-color="white"/>
</linearGradient>
<linearGradient id="paint11_linear_1_2" x1="77.6653" y1="224.054" x2="95.6037" y2="262.634" gradientUnits="userSpaceOnUse">
<stop stop-color="#169EB5"/>
<stop offset="1" stop-color="white"/>
</linearGradient>
<linearGradient id="paint12_linear_1_2" x1="78.5303" y1="223.66" x2="96.4706" y2="262.23" gradientUnits="userSpaceOnUse">
<stop stop-color="#169EB5"/>
<stop offset="1" stop-color="white"/>
</linearGradient>
<linearGradient id="paint13_linear_1_2" x1="334.26" y1="189.66" x2="333.81" y2="198.85" gradientUnits="userSpaceOnUse">
<stop stop-color="#169EB5"/>
<stop offset="1" stop-color="white"/>
</linearGradient>
<linearGradient id="paint14_linear_1_2" x1="299.83" y1="187.98" x2="299.38" y2="197.17" gradientUnits="userSpaceOnUse">
<stop stop-color="#169EB5"/>
<stop offset="1" stop-color="white"/>
</linearGradient>
<linearGradient id="paint15_linear_1_2" x1="373.86" y1="238.01" x2="295.25" y2="338.09" gradientUnits="userSpaceOnUse">
<stop stop-color="#169EB5"/>
<stop offset="1" stop-color="white"/>
</linearGradient>
<clipPath id="clip0_1_2">
<rect width="469.47" height="469.47" fill="white"/>
</clipPath>
</defs>
</svg>
